<svg xmlns="http://www.w3.org/2000/svg" width="320" height="180" viewBox="0 0 320 180"><svg width="320" height="180" viewBox="0 0 320 160" preserveAspectRatio="xMidYMid meet"><g data-chart-id="default-preview-Streamgraph" data-chart-type="area" data-area-variant="streamgraph" data-axis-swapped="false" data-stack-offset="silhouette" data-stack-order="inside-out" data-area-curve="basis" data-renderer="observable-area@3"><path data-chart-id="default-preview-Streamgraph" data-mark-role="area" data-mark-group-id="mark-group:default-preview-Streamgraph:area" data-series-key="Alpha" data-point-count="19" d="M69.668,51.599L71.591,49.742C73.514,47.885,77.36,44.172,81.205,40.459C85.051,36.746,88.896,33.033,92.742,32.598C96.588,32.164,100.433,35.009,104.279,37.854C108.125,40.699,111.97,43.543,115.816,45.295C119.661,47.047,123.507,47.706,127.353,48.365C131.198,49.023,135.044,49.682,138.889,50.341C142.735,51,146.581,51.659,150.426,52.317C154.272,52.976,158.118,53.635,161.963,52.108C165.809,50.581,169.654,46.867,173.5,43.154C177.346,39.441,181.191,35.728,185.037,34.2C188.882,32.673,192.728,33.332,196.574,33.991C200.419,34.65,204.265,35.308,208.111,37.06C211.956,38.812,215.802,41.657,219.647,44.502C223.493,47.346,227.339,50.191,231.184,51.943C235.03,53.695,238.875,54.354,242.721,55.012C246.567,55.671,250.412,56.33,254.258,55.896C258.104,55.462,261.949,53.934,265.795,52.407C269.64,50.88,273.486,49.353,275.409,48.589L277.332,47.826L277.332,61.84L275.409,62.095C273.486,62.349,269.64,62.858,265.795,63.367C261.949,63.876,258.104,64.385,254.258,65.987C250.412,67.59,246.567,70.285,242.721,72.98C238.875,75.675,235.03,78.37,231.184,77.786C227.339,77.202,223.493,73.339,219.647,69.476C215.802,65.613,211.956,61.75,208.111,58.98C204.265,56.21,200.419,54.533,196.574,52.856C192.728,51.179,188.882,49.503,185.037,50.012C181.191,50.521,177.346,53.216,173.5,55.911C169.654,58.606,165.809,61.301,161.963,63.996C158.118,66.691,154.272,69.386,150.426,72.081C146.581,74.776,142.735,77.471,138.889,77.981C135.044,78.49,131.198,76.813,127.353,75.136C123.507,73.459,119.661,71.782,115.816,69.012C111.97,66.242,108.125,62.379,104.279,58.516C100.433,54.653,96.588,50.79,92.742,50.206C88.896,49.622,85.051,52.317,81.205,55.012C77.36,57.708,73.514,60.403,71.591,61.75L69.668,63.098Z" fill="#606c38"><title>Alpha</title></path><path data-chart-id="default-preview-Streamgraph" data-mark-role="area" data-mark-group-id="mark-group:default-preview-Streamgraph:area" data-series-key="Beta" data-point-count="19" d="M69.668,63.098L71.591,61.75C73.514,60.403,77.36,57.708,81.205,55.012C85.051,52.317,88.896,49.622,92.742,50.206C96.588,50.79,100.433,54.653,104.279,58.516C108.125,62.379,111.97,66.242,115.816,69.012C119.661,71.782,123.507,73.459,127.353,75.136C131.198,76.813,135.044,78.49,138.889,77.981C142.735,77.471,146.581,74.776,150.426,72.081C154.272,69.386,158.118,66.691,161.963,63.996C165.809,61.301,169.654,58.606,173.5,55.911C177.346,53.216,181.191,50.521,185.037,50.012C188.882,49.503,192.728,51.179,196.574,52.856C200.419,54.533,204.265,56.21,208.111,58.98C211.956,61.75,215.802,65.613,219.647,69.476C223.493,73.339,227.339,77.202,231.184,77.786C235.03,78.37,238.875,75.675,242.721,72.98C246.567,70.285,250.412,67.59,254.258,65.987C258.104,64.385,261.949,63.876,265.795,63.367C269.64,62.858,273.486,62.349,275.409,62.095L277.332,61.84L277.332,79.807L275.409,79.553C273.486,79.298,269.64,78.789,265.795,78.28C261.949,77.771,258.104,77.262,254.258,77.846C250.412,78.43,246.567,80.107,242.721,81.784C238.875,83.461,235.03,85.137,231.184,85.721C227.339,86.305,223.493,85.796,219.647,85.287C215.802,84.778,211.956,84.269,208.111,82.667C204.265,81.065,200.419,78.37,196.574,75.675C192.728,72.98,188.882,70.285,185.037,69.776C181.191,69.266,177.346,70.943,173.5,72.62C169.654,74.297,165.809,75.974,161.963,77.651C158.118,79.328,154.272,81.005,150.426,82.682C146.581,84.359,142.735,86.036,138.889,87.713C135.044,89.39,131.198,91.067,127.353,92.744C123.507,94.421,119.661,96.097,115.816,94.495C111.97,92.893,108.125,88.012,104.279,83.131C100.433,78.25,96.588,73.369,92.742,71.767C88.896,70.165,85.051,71.842,81.205,73.519C77.36,75.196,73.514,76.873,71.591,77.711L69.668,78.55Z" fill="#283618"><title>Beta</title></path><path data-chart-id="default-preview-Streamgraph" data-mark-role="area" data-mark-group-id="mark-group:default-preview-Streamgraph:area" data-series-key="Gamma" data-point-count="19" d="M69.668,101.907L71.591,101.577C73.514,101.248,77.36,100.589,81.205,99.93C85.051,99.272,88.896,98.613,92.742,99.047C96.588,99.481,100.433,101.009,104.279,102.536C108.125,104.063,111.97,105.59,115.816,106.024C119.661,106.459,123.507,105.8,127.353,105.141C131.198,104.482,135.044,103.823,138.889,103.165C142.735,102.506,146.581,101.847,150.426,101.188C154.272,100.529,158.118,99.871,161.963,99.212C165.809,98.553,169.654,97.894,173.5,97.235C177.346,96.577,181.191,95.918,185.037,95.259C188.882,94.6,192.728,93.941,196.574,93.283C200.419,92.624,204.265,91.965,208.111,92.399C211.956,92.833,215.802,94.361,219.647,95.888C223.493,97.415,227.339,98.942,231.184,99.377C235.03,99.811,238.875,99.152,242.721,98.493C246.567,97.834,250.412,97.176,254.258,97.61C258.104,98.044,261.949,99.571,265.795,101.098C269.64,102.626,273.486,104.153,275.409,104.916L277.332,105.68L277.332,127.6L275.409,126.327C273.486,125.055,269.64,122.509,265.795,119.964C261.949,117.419,258.104,114.873,254.258,113.421C250.412,111.969,246.567,111.609,242.721,111.25C238.875,110.89,235.03,110.531,231.184,111.265C227.339,111.998,223.493,113.825,219.647,115.652C215.802,117.478,211.956,119.305,208.111,120.039C204.265,120.772,200.419,120.413,196.574,120.054C192.728,119.694,188.882,119.335,185.037,118.976C181.191,118.616,177.346,118.257,173.5,117.898C169.654,117.538,165.809,117.179,161.963,116.82C158.118,116.46,154.272,116.101,150.426,115.742C146.581,115.382,142.735,115.023,138.889,114.664C135.044,114.304,131.198,113.945,127.353,113.586C123.507,113.226,119.661,112.867,115.816,113.601C111.97,114.334,108.125,116.161,104.279,117.988C100.433,119.814,96.588,121.641,92.742,122.375C88.896,123.108,85.051,122.749,81.205,122.39C77.36,122.03,73.514,121.671,71.591,121.491L69.668,121.311Z" fill="#ffe6a7"><title>Gamma</title></path><path data-chart-id="default-preview-Streamgraph" data-mark-role="area" data-mark-group-id="mark-group:default-preview-Streamgraph:area" data-series-key="Delta" data-point-count="19" d="M69.668,78.55L71.591,77.711C73.514,76.873,77.36,75.196,81.205,73.519C85.051,71.842,88.896,70.165,92.742,71.767C96.588,73.369,100.433,78.25,104.279,83.131C108.125,88.012,111.97,92.893,115.816,94.495C119.661,96.097,123.507,94.421,127.353,92.744C131.198,91.067,135.044,89.39,138.889,87.713C142.735,86.036,146.581,84.359,150.426,82.682C154.272,81.005,158.118,79.328,161.963,77.651C165.809,75.974,169.654,74.297,173.5,72.62C177.346,70.943,181.191,69.266,185.037,69.776C188.882,70.285,192.728,72.98,196.574,75.675C200.419,78.37,204.265,81.065,208.111,82.667C211.956,84.269,215.802,84.778,219.647,85.287C223.493,85.796,227.339,86.305,231.184,85.721C235.03,85.137,238.875,83.461,242.721,81.784C246.567,80.107,250.412,78.43,254.258,77.846C258.104,77.262,261.949,77.771,265.795,78.28C269.64,78.789,273.486,79.298,275.409,79.553L277.332,79.807L277.332,105.68L275.409,104.916C273.486,104.153,269.64,102.626,265.795,101.098C261.949,99.571,258.104,98.044,254.258,97.61C250.412,97.176,246.567,97.834,242.721,98.493C238.875,99.152,235.03,99.811,231.184,99.377C227.339,98.942,223.493,97.415,219.647,95.888C215.802,94.361,211.956,92.833,208.111,92.399C204.265,91.965,200.419,92.624,196.574,93.283C192.728,93.941,188.882,94.6,185.037,95.259C181.191,95.918,177.346,96.577,173.5,97.235C169.654,97.894,165.809,98.553,161.963,99.212C158.118,99.871,154.272,100.529,150.426,101.188C146.581,101.847,142.735,102.506,138.889,103.165C135.044,103.823,131.198,104.482,127.353,105.141C123.507,105.8,119.661,106.459,115.816,106.024C111.97,105.59,108.125,104.063,104.279,102.536C100.433,101.009,96.588,99.481,92.742,99.047C88.896,98.613,85.051,99.272,81.205,99.93C77.36,100.589,73.514,101.248,71.591,101.577L69.668,101.907Z" fill="#dda15e"><title>Delta</title></path><path data-chart-id="default-preview-Streamgraph" data-mark-role="area" data-mark-group-id="mark-group:default-preview-Streamgraph:area" data-series-key="Epsilon" data-point-count="19" d="M69.668,24.289L71.591,24.109C73.514,23.929,77.36,23.57,81.205,23.21C85.051,22.851,88.896,22.492,92.742,23.225C96.588,23.959,100.433,25.786,104.279,27.612C108.125,29.439,111.97,31.266,115.816,31.999C119.661,32.733,123.507,32.374,127.353,32.014C131.198,31.655,135.044,31.296,138.889,30.936C142.735,30.577,146.581,30.218,150.426,29.858C154.272,29.499,158.118,29.14,161.963,28.78C165.809,28.421,169.654,28.062,173.5,27.702C177.346,27.343,181.191,26.984,185.037,26.624C188.882,26.265,192.728,25.906,196.574,25.546C200.419,25.187,204.265,24.828,208.111,25.561C211.956,26.295,215.802,28.122,219.647,29.948C223.493,31.775,227.339,33.602,231.184,34.335C235.03,35.069,238.875,34.71,242.721,34.35C246.567,33.991,250.412,33.631,254.258,32.179C258.104,30.727,261.949,28.181,265.795,25.636C269.64,23.091,273.486,20.545,275.409,19.273L277.332,18L277.332,47.826L275.409,48.589C273.486,49.353,269.64,50.88,265.795,52.407C261.949,53.934,258.104,55.462,254.258,55.896C250.412,56.33,246.567,55.671,242.721,55.012C238.875,54.354,235.03,53.695,231.184,51.943C227.339,50.191,223.493,47.346,219.647,44.502C215.802,41.657,211.956,38.812,208.111,37.06C204.265,35.308,200.419,34.65,196.574,33.991C192.728,33.332,188.882,32.673,185.037,34.2C181.191,35.728,177.346,39.441,173.5,43.154C169.654,46.867,165.809,50.581,161.963,52.108C158.118,53.635,154.272,52.976,150.426,52.317C146.581,51.659,142.735,51,138.889,50.341C135.044,49.682,131.198,49.023,127.353,48.365C123.507,47.706,119.661,47.047,115.816,45.295C111.97,43.543,108.125,40.699,104.279,37.854C100.433,35.009,96.588,32.164,92.742,32.598C88.896,33.033,85.051,36.746,81.205,40.459C77.36,44.172,73.514,47.885,71.591,49.742L69.668,51.599Z" fill="#bc6c25"><title>Epsilon</title></path></g></svg></svg>