<svg xmlns="http://www.w3.org/2000/svg" xmlns:xlink="http://www.w3.org/1999/xlink" viewBox="0 0 650 650" width="650" height="650"><g transform="translate(325 325) rotate(0) scale(1 1) translate(-325 -325)"><g data-chart-id="17711b72-e26d-46f0-8975-efa58ae770ac" data-chart-type="radar" data-renderer="deterministic-radar@2" data-theta-field="metric" data-radius-field="score"><path data-mark-role="radar-grid" d="M386.75 325L378.4770686836891 355.875L355.875 378.4770686836891L325 386.75L294.125 378.4770686836891L271.5229313163109 355.875Z" fill="none" stroke="#94a3b8" stroke-opacity="0.35" stroke-width="1" vector-effect="non-scaling-stroke"/><path data-mark-role="radar-grid" d="M448.5 325L431.95413736737817 386.75000000000006L386.75 431.95413736737817L325 448.5L263.25 431.95413736737817L218.04586263262183 386.75Z" fill="none" stroke="#94a3b8" stroke-opacity="0.35" stroke-width="1" vector-effect="non-scaling-stroke"/><path data-mark-role="radar-grid" d="M510.25 325.00000000000006L485.4312060510672 417.6250000000001L417.625 485.43120605106725L325 510.25L232.375 485.4312060510673L164.56879394893272 417.62499999999994Z" fill="none" stroke="#94a3b8" stroke-opacity="0.35" stroke-width="1" vector-effect="non-scaling-stroke"/><path data-mark-role="radar-grid" d="M572 325.00000000000006L538.9082747347563 448.5000000000001L448.5 538.9082747347563L324.99999999999994 572L201.5 538.9082747347563L111.09172526524364 448.49999999999994Z" fill="none" stroke="#94a3b8" stroke-opacity="0.35" stroke-width="1" vector-effect="non-scaling-stroke"/><line data-mark-role="radar-axis" x1="325" y1="325" x2="572" y2="325.00000000000006" stroke="#94a3b8" stroke-opacity="0.4" vector-effect="non-scaling-stroke"/><line data-mark-role="radar-axis" x1="325" y1="325" x2="538.9082747347563" y2="448.5000000000001" stroke="#94a3b8" stroke-opacity="0.4" vector-effect="non-scaling-stroke"/><line data-mark-role="radar-axis" x1="325" y1="325" x2="448.5" y2="538.9082747347563" stroke="#94a3b8" stroke-opacity="0.4" vector-effect="non-scaling-stroke"/><line data-mark-role="radar-axis" x1="325" y1="325" x2="324.99999999999994" y2="572" stroke="#94a3b8" stroke-opacity="0.4" vector-effect="non-scaling-stroke"/><line data-mark-role="radar-axis" x1="325" y1="325" x2="201.5" y2="538.9082747347563" stroke="#94a3b8" stroke-opacity="0.4" vector-effect="non-scaling-stroke"/><line data-mark-role="radar-axis" x1="325" y1="325" x2="111.09172526524364" y2="448.49999999999994" stroke="#94a3b8" stroke-opacity="0.4" vector-effect="non-scaling-stroke"/><path data-chart-id="17711b72-e26d-46f0-8975-efa58ae770ac" data-mark-role="area" data-mark-group-id="mark-group:17711b72-e26d-46f0-8975-efa58ae770ac:area" data-series-key="Aster" data-row-keys="42,49,56,63,70,77" data-curve="catmull-rom-closed" d="M475.862,412.1C467.47,441.615,447.844,474.093,423.8,496.127C398.358,519.441,360.747,538.918,325,546C287.383,553.452,226.966,558.682,202.8,536.657C177.882,513.945,160.009,441.256,180.893,408.2C212.918,357.51,441.59,299.125,475.8,325C494.039,338.795,483.738,384.394,475.862,412.1Z" fill="#606c38" fill-opacity="1" stroke="#606c38" stroke-opacity="0.88" stroke-width="2" stroke-linecap="round" stroke-linejoin="round" vector-effect="non-scaling-stroke"/><path data-chart-id="17711b72-e26d-46f0-8975-efa58ae770ac" data-mark-role="area" data-mark-group-id="mark-group:17711b72-e26d-46f0-8975-efa58ae770ac:area" data-series-key="Boreal" data-row-keys="53,60,67,74,81,88" data-curve="catmull-rom-closed" d="M511.888,432.9C502.102,469.859,479.106,527.037,448.5,538.908C417.227,551.038,364.811,507.002,325,501.8C289.239,497.127,254.414,513.641,221,505.133C185.176,496.012,115.415,465.257,117.847,444.6C122.347,406.373,464.324,292.221,509.6,325C532.84,341.826,521.037,398.352,511.888,432.9Z" fill="#283618" fill-opacity="1" stroke="#283618" stroke-opacity="0.88" stroke-width="2" stroke-linecap="round" stroke-linejoin="round" vector-effect="non-scaling-stroke"/><path data-chart-id="17711b72-e26d-46f0-8975-efa58ae770ac" data-mark-role="area" data-mark-group-id="mark-group:17711b72-e26d-46f0-8975-efa58ae770ac:area" data-series-key="Cinder" data-row-keys="64,71,78,85,44,51" data-curve="catmull-rom-closed" d="M460.1,403C441.191,430.328,443.271,468.56,422.5,493.875C399.821,521.516,355.341,561.954,325,559C294.171,555.998,270.812,495.342,239.2,473.61C209.639,453.288,141.333,445.846,142.615,430.3C145.152,399.542,532.122,304.587,543.4,325C549.318,335.712,480.469,373.562,460.1,403Z" fill="#ffe6a7" fill-opacity="1" stroke="#ffe6a7" stroke-opacity="0.88" stroke-width="2" stroke-linecap="round" stroke-linejoin="round" vector-effect="non-scaling-stroke"/><path data-chart-id="17711b72-e26d-46f0-8975-efa58ae770ac" data-mark-role="area" data-mark-group-id="mark-group:17711b72-e26d-46f0-8975-efa58ae770ac:area" data-series-key="Dune" data-row-keys="75,82,89,48,55,62" data-curve="catmull-rom-closed" d="M496.127,423.8C492.303,460.762,475.6,521.422,447.2,536.657C418.669,551.961,365.48,515.813,325,514.8C285.323,513.807,232.97,546.215,206.7,529.902C180.294,513.503,151.617,446.601,167.383,416C193.14,366.01,431.138,298.198,475.8,325C500.814,340.011,499.589,390.328,496.127,423.8Z" fill="#dda15e" fill-opacity="1" stroke="#dda15e" stroke-opacity="0.88" stroke-width="2" stroke-linecap="round" stroke-linejoin="round" vector-effect="non-scaling-stroke"/></g></g><g transform="translate(325 325) rotate(0) scale(1 1) translate(-325 -325)"><g data-chart-id="dbff60cd-62b8-4074-997a-710e5e3a801c" data-chart-type="radial-bar" data-polar-orientation="radial" data-bar-shape="sector" data-bar-variant="single" data-renderer="deterministic-polar-bar@2" data-category-field="metric" data-value-field="training_load" data-facet-column="" data-angle-start="180" data-angle-span="180" data-theta-mode="static" data-theta-field=""><path data-chart-id="dbff60cd-62b8-4074-997a-710e5e3a801c" data-mark-role="bar" data-mark-group-id="mark-group:dbff60cd-62b8-4074-997a-710e5e3a801c:bar" data-row-keys="42,53,64,75" data-category-key="Speed" data-series-key="__single__" data-angle="-1.3089969389957472" data-angle-start-deg="180" data-angle-end-deg="180" data-theta-value="1" data-value="234" data-stack-start="0" data-stack-end="234" d="M-198.91,-12.514A199.303,199.303,0,0,1,-178.518,-88.617L0,0Z" transform="translate(325 325)" fill="#606c38" fill-opacity="1"><title>Speed
234</title></path><path data-chart-id="dbff60cd-62b8-4074-997a-710e5e3a801c" data-mark-role="bar" data-mark-group-id="mark-group:dbff60cd-62b8-4074-997a-710e5e3a801c:bar" data-row-keys="49,60,71,82" data-category-key="Power" data-series-key="__single__" data-angle="-0.7853981633974485" data-angle-start-deg="180" data-angle-end-deg="180" data-theta-value="1" data-value="262" data-stack-start="0" data-stack-end="262" d="M-185.868,-123.49A223.152,223.152,0,0,1,-123.49,-185.868L0,0Z" transform="translate(325 325)" fill="#283618" fill-opacity="1"><title>Power
262</title></path><path data-chart-id="dbff60cd-62b8-4074-997a-710e5e3a801c" data-mark-role="bar" data-mark-group-id="mark-group:dbff60cd-62b8-4074-997a-710e5e3a801c:bar" data-row-keys="56,67,78,89" data-category-key="Endurance" data-series-key="__single__" data-angle="-0.26179938779914963" data-angle-start-deg="180" data-angle-end-deg="180" data-theta-value="1" data-value="290" data-stack-start="0" data-stack-end="290" d="M-109.825,-221.241A247,247,0,0,1,-15.509,-246.513L0,0Z" transform="translate(325 325)" fill="#ffe6a7" fill-opacity="1"><title>Endurance
290</title></path><path data-chart-id="dbff60cd-62b8-4074-997a-710e5e3a801c" data-mark-role="bar" data-mark-group-id="mark-group:dbff60cd-62b8-4074-997a-710e5e3a801c:bar" data-row-keys="63,74,85,48" data-category-key="Agility" data-series-key="__single__" data-angle="0.2617993877991492" data-angle-start-deg="180" data-angle-end-deg="180" data-theta-value="1" data-value="270" data-stack-start="0" data-stack-end="270" d="M14.44,-229.512A229.966,229.966,0,0,1,102.251,-205.983L0,0Z" transform="translate(325 325)" fill="#dda15e" fill-opacity="1"><title>Agility
270</title></path><path data-chart-id="dbff60cd-62b8-4074-997a-710e5e3a801c" data-mark-role="bar" data-mark-group-id="mark-group:dbff60cd-62b8-4074-997a-710e5e3a801c:bar" data-row-keys="70,81,44,55" data-category-key="Recovery" data-series-key="__single__" data-angle="0.7853981633974481" data-angle-start-deg="180" data-angle-end-deg="180" data-theta-value="1" data-value="250" data-stack-start="0" data-stack-end="250" d="M117.834,-177.355A212.931,212.931,0,0,1,177.355,-117.834L0,0Z" transform="translate(325 325)" fill="#bc6c25" fill-opacity="1"><title>Recovery
250</title></path><path data-chart-id="dbff60cd-62b8-4074-997a-710e5e3a801c" data-mark-role="bar" data-mark-group-id="mark-group:dbff60cd-62b8-4074-997a-710e5e3a801c:bar" data-row-keys="77,88,51,62" data-category-key="Technique" data-series-key="__single__" data-angle="1.3089969389957468" data-angle-start-deg="180" data-angle-end-deg="180" data-theta-value="1" data-value="278" data-stack-start="0" data-stack-end="278" d="M212.086,-105.28A236.779,236.779,0,0,1,236.312,-14.867L0,0Z" transform="translate(325 325)" fill="#780000" fill-opacity="1"><title>Technique
278</title></path></g></g></svg>